{
  "accessors": [
    {
      "bufferView": 2,
      "componentType": 5126,
      "count": 9150,
      "max": [
        0.976069986820221,
        0.8529199957847595,
        0.991569995880127
      ],
      "min": [
        -0.9803500175476074,
        -0.9653900265693665,
        -0.9914299845695496
      ],
      "type": "VEC3"
    },
    {
      "bufferView": 2,
      "byteOffset": 109800,
      "componentType": 5126,
      "count": 9150,
      "max": [
        0.9995685815811157,
        0.9997856020927429,
        0.9992237091064453
      ],
      "min": [
        -0.9996342658996582,
        -0.9996863007545471,
        -0.9995502233505249
      ],
      "type": "VEC3"
    },
    {
      "bufferView": 1,
      "componentType": 5126,
      "count": 9150,
      "max": [
        1.366379976272583,
        0.9087600111961365
      ],
      "min": [
        0.006680000107735395,
        0.09021999686956406
      ],
      "type": "VEC2"
    },
    {
      "bufferView": 0,
      "componentType": 5125,
      "count": 9150,
      "type": "SCALAR"
    },
    {
      "bufferView": 2,
      "byteOffset": 219600,
      "componentType": 5126,
      "count": 29040,
      "max": [
        3.4538300037384033,
        3.462630033493042,
        3.4700000286102295
      ],
      "min": [
        -3.443730115890503,
        -3.4698400497436523,
        -3.4700000286102295
      ],
      "type": "VEC3"
    },
    {
      "bufferView": 2,
      "byteOffset": 568080,
      "componentType": 5126,
      "count": 29040,
      "max": [
        0.999553918838501,
        0.9995054602622986,
        0.9999160766601563
      ],
      "min": [
        -0.999366283416748,
        -0.9997734427452087,
        -0.9999139308929443
      ],
      "type": "VEC3"
    },
    {
      "bufferView": 1,
      "byteOffset": 73200,
      "componentType": 5126,
      "count": 29040,
      "max": [
        1.404170036315918,
        0.9978100061416626
      ],
      "min": [
        0.0,
        0.0033400000538676977
      ],
      "type": "VEC2"
    },
    {
      "bufferView": 0,
      "byteOffset": 36600,
      "componentType": 5125,
      "count": 43200,
      "type": "SCALAR"
    },
    {
      "bufferView": 2,
      "byteOffset": 916560,
      "componentType": 5126,
      "count": 15360,
      "max": [
        1.0553100109100342,
        1.0553100109100342,
        0.09565000236034393
      ],
      "min": [
        -1.0553100109100342,
        -1.0553100109100342,
        -0.09565000236034393
      ],
      "type": "VEC3"
    },
    {
      "bufferView": 2,
      "byteOffset": 1100880,
      "componentType": 5126,
      "count": 15360,
      "max": [
        0.9981679916381836,
        0.9981679916381836,
        0.9999858140945435
      ],
      "min": [
        -0.9981679916381836,
        -0.9981679916381836,
        -0.9999858140945435
      ],
      "type": "VEC3"
    },
    {
      "bufferView": 1,
      "byteOffset": 305520,
      "componentType": 5126,
      "count": 15360,
      "max": [
        0.0,
        0.0
      ],
      "min": [
        0.0,
        0.0
      ],
      "type": "VEC2"
    },
    {
      "bufferView": 0,
      "byteOffset": 209400,
      "componentType": 5125,
      "count": 23040,
      "type": "SCALAR"
    },
    {
      "bufferView": 2,
      "byteOffset": 1285200,
      "componentType": 5126,
      "count": 1926,
      "max": [
        22.60460090637207,
        22.639860153198242,
        22.615449905395508
      ],
      "min": [
        -22.6055908203125,
        -22.639860153198242,
        -22.610389709472656
      ],
      "type": "VEC3"
    },
    {
      "bufferView": 2,
      "byteOffset": 1308312,
      "componentType": 5126,
      "count": 1926,
      "max": [
        0.9970340728759766,
        1.0,
        0.9976417422294617
      ],
      "min": [
        -0.9970353245735168,
        -1.0,
        -0.9976425170898438
      ],
      "type": "VEC3"
    },
    {
      "bufferView": 1,
      "byteOffset": 428400,
      "componentType": 5126,
      "count": 1926,
      "max": [
        0.0,
        0.0
      ],
      "min": [
        0.0,
        0.0
      ],
      "type": "VEC2"
    },
    {
      "bufferView": 2,
      "byteOffset": 1331424,
      "componentType": 5126,
      "count": 1926,
      "max": [
        0.5634700059890747,
        0.5641099810600281,
        0.34310001134872437
      ],
      "min": [
        -0.5612800121307373,
        -0.5612200498580933,
        -0.5647700428962708
      ],
      "type": "VEC3"
    },
    {
      "bufferView": 0,
      "byteOffset": 301560,
      "componentType": 5125,
      "count": 1926,
      "type": "SCALAR"
    },
    {
      "bufferView": 2,
      "byteOffset": 1354536,
      "componentType": 5126,
      "count": 3904,
      "max": [
        0.9838899970054626,
        1.0032099485397339,
        0.012129999697208405
      ],
      "min": [
        -1.0032099485397339,
        -1.0032099485397339,
        -0.012179999612271786
      ],
      "type": "VEC3"
    },
    {
      "bufferView": 2,
      "byteOffset": 1401384,
      "componentType": 5126,
      "count": 3904,
      "max": [
        0.9993560910224915,
        0.9993711709976196,
        0.9392525553703308
      ],
      "min": [
        -0.999373197555542,
        -0.9993711709976196,
        -0.9392525553703308
      ],
      "type": "VEC3"
    },
    {
      "bufferView": 1,
      "byteOffset": 443808,
      "componentType": 5126,
      "count": 3904,
      "max": [
        0.0,
        0.0
      ],
      "min": [
        0.0,
        0.0
      ],
      "type": "VEC2"
    },
    {
      "bufferView": 0,
      "byteOffset": 309264,
      "componentType": 5125,
      "count": 5856,
      "type": "SCALAR"
    },
    {
      "bufferView": 2,
      "byteOffset": 1448232,
      "componentType": 5126,
      "count": 3840,
      "max": [
        1.7252099514007568,
        1.8140000104904175,
        1.8140000104904175
      ],
      "min": [
        -1.7252099514007568,
        -1.8140000104904175,
        -1.8140000104904175
      ],
      "type": "VEC3"
    },
    {
      "bufferView": 2,
      "byteOffset": 1494312,
      "componentType": 5126,
      "count": 3840,
      "max": [
        0.9860851764678955,
        0.9901638627052307,
        0.9806456565856934
      ],
      "min": [
        -0.9860851764678955,
        -0.9901638627052307,
        -0.9806456565856934
      ],
      "type": "VEC3"
    },
    {
      "bufferView": 1,
      "byteOffset": 475040,
      "componentType": 5126,
      "count": 3840,
      "max": [
        1.0,
        0.47238001227378845
      ],
      "min": [
        0.0,
        0.0
      ],
      "type": "VEC2"
    },
    {
      "bufferView": 0,
      "byteOffset": 332688,
      "componentType": 5125,
      "count": 5760,
      "type": "SCALAR"
    },
    {
      "bufferView": 3,
      "componentType": 5126,
      "count": 250,
      "max": [
        10.416669845581055
      ],
      "min": [
        0.041669998317956924
      ],
      "type": "SCALAR"
    },
    {
      "bufferView": 5,
      "componentType": 5126,
      "count": 250,
      "max": [
        0.49998998641967773,
        0.9999600052833557,
        0.49998998641967773,
        1.0
      ],
      "min": [
        -0.49998998641967773,
        0.0,
        -0.49998998641967773,
        3.9999998989515007e-05
      ],
      "type": "VEC4"
    },
    {
      "bufferView": 3,
      "byteOffset": 1000,
      "componentType": 5126,
      "count": 250,
      "max": [
        10.416669845581055
      ],
      "min": [
        0.041669998317956924
      ],
      "type": "SCALAR"
    },
    {
      "bufferView": 5,
      "byteOffset": 4000,
      "componentType": 5126,
      "count": 250,
      "max": [
        0.0,
        0.0,
        0.9999799728393555,
        1.0
      ],
      "min": [
        0.0,
        0.0,
        -0.9998199939727783,
        -0.006310000084340572
      ],
      "type": "VEC4"
    },
    {
      "bufferView": 3,
      "byteOffset": 2000,
      "componentType": 5126,
      "count": 250,
      "max": [
        10.416669845581055
      ],
      "min": [
        0.041669998317956924
      ],
      "type": "SCALAR"
    },
    {
      "bufferView": 5,
      "byteOffset": 8000,
      "componentType": 5126,
      "count": 250,
      "max": [
        0.3140600025653839,
        0.035909999161958694,
        0.0,
        1.0
      ],
      "min": [
        0.0,
        0.0,
        -0.2519400119781494,
        0.9149799942970276
      ],
      "type": "VEC4"
    },
    {
      "bufferView": 3,
      "byteOffset": 3000,
      "componentType": 5126,
      "count": 230,
      "max": [
        10.416669845581055
      ],
      "min": [
        0.041669998317956924
      ],
      "type": "SCALAR"
    },
    {
      "bufferView": 4,
      "componentType": 5126,
      "count": 230,
      "max": [
        0.17636999487876892,
        0.17636999487876892,
        0.17636999487876892
      ],
      "min": [
        0.15153999626636505,
        0.15153999626636505,
        0.15153999626636505
      ],
      "type": "VEC3"
    },
    {
      "bufferView": 3,
      "byteOffset": 3920,
      "componentType": 5126,
      "count": 250,
      "max": [
        10.416669845581055
      ],
      "min": [
        0.041669998317956924
      ],
      "type": "SCALAR"
    },
    {
      "bufferView": 5,
      "byteOffset": 12000,
      "componentType": 5126,
      "count": 250,
      "max": [
        0.7070900201797485,
        0.7070900201797485,
        0.7070900201797485,
        1.0
      ],
      "min": [
        -0.7066699862480164,
        -0.19245000183582306,
        -0.7066699862480164,
        -0.006690000183880329
      ],
      "type": "VEC4"
    },
    {
      "bufferView": 3,
      "byteOffset": 4920,
      "componentType": 5126,
      "count": 250,
      "max": [
        10.416669845581055
      ],
      "min": [
        0.041669998317956924
      ],
      "type": "SCALAR"
    },
    {
      "bufferView": 5,
      "byteOffset": 16000,
      "componentType": 5126,
      "count": 250,
      "max": [
        0.0,
        0.0,
        1.0,
        0.9999799728393555
      ],
      "min": [
        0.0,
        0.0,
        -0.9999099969863892,
        -0.00044999999227002263
      ],
      "type": "VEC4"
    },
    {
      "bufferView": 3,
      "byteOffset": 5920,
      "componentType": 5126,
      "count": 250,
      "max": [
        10.416669845581055
      ],
      "min": [
        0.041669998317956924
      ],
      "type": "SCALAR"
    },
    {
      "bufferView": 5,
      "byteOffset": 20000,
      "componentType": 5126,
      "count": 250,
      "max": [
        0.0,
        0.0,
        0.9999799728393555,
        1.0
      ],
      "min": [
        0.0,
        0.0,
        -0.9998199939727783,
        -0.006310000084340572
      ],
      "type": "VEC4"
    },
    {
      "bufferView": 3,
      "byteOffset": 6920,
      "componentType": 5126,
      "count": 250,
      "max": [
        10.416669845581055
      ],
      "min": [
        0.041669998317956924
      ],
      "type": "SCALAR"
    },
    {
      "bufferView": 3,
      "byteOffset": 7920,
      "componentType": 5126,
      "count": 250,
      "max": [
        0.7999500036239624
      ],
      "min": [
        6.836652577391078e-09
      ],
      "type": "SCALAR"
    }
  ],
  "animations": [
    {
      "channels": [
        {
          "sampler": 0,
          "target": {
            "node": 10,
            "path": "rotation"
          }
        },
        {
          "sampler": 1,
          "target": {
            "node": 12,
            "path": "rotation"
          }
        },
        {
          "sampler": 2,
          "target": {
            "node": 8,
            "path": "rotation"
          }
        },
        {
          "sampler": 3,
          "target": {
            "node": 8,
            "path": "scale"
          }
        },
        {
          "sampler": 4,
          "target": {
            "node": 6,
            "path": "rotation"
          }
        },
        {
          "sampler": 5,
          "target": {
            "node": 4,
            "path": "rotation"
          }
        },
        {
          "sampler": 6,
          "target": {
            "node": 2,
            "path": "rotation"
          }
        },
        {
          "sampler": 7,
          "target": {
            "node": 9,
            "path": "weights"
          }
        }
      ],
      "name": "Take 01",
      "samplers": [
        {
          "input": 25,
          "interpolation": "LINEAR",
          "output": 26
        },
        {
          "input": 27,
          "interpolation": "LINEAR",
          "output": 28
        },
        {
          "input": 29,
          "interpolation": "LINEAR",
          "output": 30
        },
        {
          "input": 31,
          "interpolation": "LINEAR",
          "output": 32
        },
        {
          "input": 33,
          "interpolation": "LINEAR",
          "output": 34
        },
        {
          "input": 35,
          "interpolation": "LINEAR",
          "output": 36
        },
        {
          "input": 37,
          "interpolation": "LINEAR",
          "output": 38
        },
        {
          "input": 39,
          "interpolation": "LINEAR",
          "output": 40
        }
      ]
    }
  ],
  "asset": {
    "extras": {
      "author": "Meee (https://sketchfab.com/Meee)",
      "license": "CC-BY-4.0 (http://creativecommons.org/licenses/by/4.0/)",
      "source": "https://sketchfab.com/3d-models/earth-hologram-87072288fb234226b9a3f02ae674a310",
      "title": "Earth hologram"
    },
    "generator": "Sketchfab-12.66.0",
    "version": "2.0"
  },
  "bufferViews": [
    {
      "buffer": 0,
      "byteLength": 355728,
      "name": "floatBufferViews",
      "target": 34963
    },
    {
      "buffer": 0,
      "byteLength": 505760,
      "byteOffset": 355728,
      "byteStride": 8,
      "name": "floatBufferViews",
      "target": 34962
    },
    {
      "buffer": 0,
      "byteLength": 1540392,
      "byteOffset": 861488,
      "byteStride": 12,
      "name": "floatBufferViews",
      "target": 34962
    },
    {
      "buffer": 0,
      "byteLength": 8920,
      "byteOffset": 2401880,
      "name": "floatBufferViews"
    },
    {
      "buffer": 0,
      "byteLength": 2760,
      "byteOffset": 2410800,
      "byteStride": 12,
      "name": "floatBufferViews"
    },
    {
      "buffer": 0,
      "byteLength": 24000,
      "byteOffset": 2413560,
      "byteStride": 16,
      "name": "floatBufferViews"
    }
  ],
  "buffers": [
    {
      "byteLength": 2437560,
      "uri": "scene.bin"
    }
  ],
  "extensionsRequired": [
    "KHR_materials_pbrSpecularGlossiness"
  ],
  "extensionsUsed": [
    "KHR_materials_pbrSpecularGlossiness"
  ],
  "materials": [
    {
      "alphaMode": "BLEND",
      "doubleSided": true,
      "emissiveFactor": [
        0.6315964807290673,
        1.0,
        1.0
      ],
      "extensions": {
        "KHR_materials_pbrSpecularGlossiness": {
          "diffuseFactor": [
            0.0,
            0.0,
            0.0,
            0.2622727365204782
          ],
          "glossinessFactor": 0.4,
          "specularFactor": [
            1.0,
            1.0,
            1.0
          ]
        }
      },
      "name": "Material.010"
    },
    {
      "alphaMode": "BLEND",
      "doubleSided": true,
      "emissiveFactor": [
        0.0,
        0.6022702276178409,
        1.0
      ],
      "extensions": {
        "KHR_materials_pbrSpecularGlossiness": {
          "diffuseFactor": [
            1.0,
            1.0,
            1.0,
            0.5107575850053268
          ],
          "glossinessFactor": 0.4,
          "specularFactor": [
            1.0,
            1.0,
            1.0
          ]
        }
      },
      "name": "Material.008"
    },
    {
      "alphaMode": "BLEND",
      "emissiveFactor": [
        1.0,
        1.0,
        1.0
      ],
      "extensions": {
        "KHR_materials_pbrSpecularGlossiness": {
          "diffuseFactor": [
            1.0,
            1.0,
            1.0,
            0.3774242516719934
          ],
          "glossinessFactor": 0.4,
          "specularFactor": [
            1.0,
            1.0,
            1.0
          ]
        }
      },
      "name": "Material.007"
    },
    {
      "alphaMode": "BLEND",
      "doubleSided": true,
      "emissiveFactor": [
        0.49173972327825194,
        1.0,
        1.0
      ],
      "extensions": {
        "KHR_materials_pbrSpecularGlossiness": {
          "diffuseFactor": [
            1.0,
            1.0,
            1.0,
            0.24409091833866003
          ],
          "glossinessFactor": 0.4,
          "specularFactor": [
            1.0,
            1.0,
            1.0
          ]
        }
      },
      "name": "Material.004"
    },
    {
      "alphaMode": "BLEND",
      "doubleSided": true,
      "emissiveFactor": [
        0.14438921795070875,
        0.9422065821048152,
        1.0
      ],
      "extensions": {
        "KHR_materials_pbrSpecularGlossiness": {
          "diffuseFactor": [
            1.0,
            1.0,
            1.0,
            0.8137878880356297
          ],
          "glossinessFactor": 0.4,
          "specularFactor": [
            1.0,
            1.0,
            1.0
          ]
        }
      },
      "name": "Material.006"
    },
    {
      "alphaMode": "BLEND",
      "doubleSided": true,
      "extensions": {
        "KHR_materials_pbrSpecularGlossiness": {
          "diffuseFactor": [
            0.0,
            0.0,
            0.0,
            0.631969706217448
          ],
          "glossinessFactor": 0.4,
          "specularFactor": [
            1.0,
            1.0,
            1.0
          ]
        }
      },
      "name": "Material.005"
    }
  ],
  "meshes": [
    {
      "name": "TERRE1_0",
      "primitives": [
        {
          "attributes": {
            "NORMAL": 1,
            "POSITION": 0,
            "TEXCOORD_0": 2
          },
          "indices": 3,
          "material": 5,
          "mode": 4
        }
      ]
    },
    {
      "name": "Sphere.002_0",
      "primitives": [
        {
          "attributes": {
            "NORMAL": 5,
            "POSITION": 4,
            "TEXCOORD_0": 6
          },
          "indices": 7,
          "material": 4,
          "mode": 4
        }
      ]
    },
    {
      "name": "Circle.643_0",
      "primitives": [
        {
          "attributes": {
            "NORMAL": 9,
            "POSITION": 8,
            "TEXCOORD_0": 10
          },
          "indices": 11,
          "material": 3,
          "mode": 4
        }
      ]
    },
    {
      "name": "Circle.455_0",
      "primitives": [
        {
          "attributes": {
            "NORMAL": 13,
            "POSITION": 12,
            "TEXCOORD_0": 14
          },
          "indices": 16,
          "material": 2,
          "mode": 4,
          "targets": [
            {
              "POSITION": 15
            }
          ]
        }
      ],
      "weights": [
        0.0
      ]
    },
    {
      "name": "Circle_0",
      "primitives": [
        {
          "attributes": {
            "NORMAL": 18,
            "POSITION": 17,
            "TEXCOORD_0": 19
          },
          "indices": 20,
          "material": 0,
          "mode": 4
        }
      ]
    },
    {
      "name": "Icosphere.002_0",
      "primitives": [
        {
          "attributes": {
            "NORMAL": 22,
            "POSITION": 21,
            "TEXCOORD_0": 23
          },
          "indices": 24,
          "material": 1,
          "mode": 4
        }
      ]
    }
  ],
  "nodes": [
    {
      "children": [
        1
      ],
      "matrix": [
        0.3062223494052887,
        0.0,
        0.0,
        0.0,
        0.0,
        6.799502059291222e-17,
        -0.3062223494052887,
        0.0,
        0.0,
        0.3062223494052887,
        6.799502059291222e-17,
        0.0,
        0.0,
        0.0,
        0.0,
        1.0
      ],
      "name": "Sketchfab_model"
    },
    {
      "children": [
        2,
        4,
        6,
        8,
        10
      ],
      "name": "Root"
    },
    {
      "children": [
        3
      ],
      "name": "TERRE1",
      "scale": [
        3.2698299884796143,
        3.2698299884796143,
        3.2698299884796143
      ]
    },
    {
      "mesh": 0,
      "name": "TERRE1_0"
    },
    {
      "children": [
        5
      ],
      "name": "Sphere.002",
      "rotation": [
        0.0,
        0.0,
        -0.9979832172393799,
        0.0634801983833313
      ],
      "scale": [
        0.9652199745178223,
        0.9652199745178223,
        0.9652199745178223
      ]
    },
    {
      "mesh": 1,
      "name": "Sphere.002_0"
    },
    {
      "children": [
        7
      ],
      "name": "Circle.643",
      "scale": [
        4.786620140075684,
        4.786620140075684,
        4.786620140075684
      ]
    },
    {
      "mesh": 2,
      "name": "Circle.643_0"
    },
    {
      "children": [
        9
      ],
      "name": "Circle.455",
      "scale": [
        0.17636999487876892,
        0.17636999487876892,
        0.17636999487876892
      ]
    },
    {
      "mesh": 3,
      "name": "Circle.455_0"
    },
    {
      "children": [
        11,
        12
      ],
      "name": "Circle",
      "scale": [
        6.128389835357666,
        6.128389835357666,
        6.128389835357666
      ]
    },
    {
      "mesh": 4,
      "name": "Circle_0"
    },
    {
      "children": [
        13
      ],
      "name": "Icosphere.002",
      "scale": [
        0.06312000006437302,
        0.06312000006437302,
        0.06312000006437302
      ],
      "translation": [
        1.0,
        0.0,
        0.0
      ]
    },
    {
      "mesh": 5,
      "name": "Icosphere.002_0"
    }
  ],
  "scene": 0,
  "scenes": [
    {
      "name": "Sketchfab_Scene",
      "nodes": [
        0
      ]
    }
  ]
}
